<mxfile host="app.diagrams.net" modified="2023-04-07T20:25:03.308Z" agent="Mozilla/5.0 (X11; Linux x86_64; rv:109.0) Gecko/20100101 Firefox/111.0" etag="ZwiQGrlPJEIO57n3wT5l" version="21.1.5" type="github">
  <diagram id="R2lEEEUBdFMjLlhIrx00" name="Page-1">
    <mxGraphModel dx="1094" dy="622" grid="1" gridSize="10" guides="1" tooltips="1" connect="1" arrows="1" fold="1" page="1" pageScale="1" pageWidth="850" pageHeight="1100" math="0" shadow="0" extFonts="Permanent Marker^https://fonts.googleapis.com/css?family=Permanent+Marker">
      <root>
        <mxCell id="0" />
        <mxCell id="1" parent="0" />
        <mxCell id="X5-4_fndRjFYN60M6XeI-5" style="edgeStyle=orthogonalEdgeStyle;rounded=1;orthogonalLoop=1;jettySize=auto;html=1;exitX=1;exitY=0.5;exitDx=0;exitDy=0;labelBackgroundColor=none;strokeColor=#457B9D;fontColor=default;" edge="1" parent="1" source="X5-4_fndRjFYN60M6XeI-1" target="X5-4_fndRjFYN60M6XeI-3">
          <mxGeometry relative="1" as="geometry" />
        </mxCell>
        <mxCell id="X5-4_fndRjFYN60M6XeI-1" value="FUNCIONARIO" style="rounded=1;whiteSpace=wrap;html=1;labelBackgroundColor=none;fillColor=#A8DADC;strokeColor=#457B9D;fontColor=#1D3557;" vertex="1" parent="1">
          <mxGeometry x="40" y="40" width="110" height="60" as="geometry" />
        </mxCell>
        <mxCell id="X5-4_fndRjFYN60M6XeI-11" style="edgeStyle=orthogonalEdgeStyle;rounded=1;orthogonalLoop=1;jettySize=auto;html=1;exitX=0.5;exitY=1;exitDx=0;exitDy=0;entryX=0.5;entryY=0;entryDx=0;entryDy=0;labelBackgroundColor=none;strokeColor=#457B9D;fontColor=default;" edge="1" parent="1" source="X5-4_fndRjFYN60M6XeI-3" target="X5-4_fndRjFYN60M6XeI-7">
          <mxGeometry relative="1" as="geometry" />
        </mxCell>
        <mxCell id="X5-4_fndRjFYN60M6XeI-3" value="TRABALHA_PARA" style="rhombus;whiteSpace=wrap;html=1;rounded=1;labelBackgroundColor=none;fillColor=#A8DADC;strokeColor=#457B9D;fontColor=#1D3557;" vertex="1" parent="1">
          <mxGeometry x="195" y="30" width="140" height="80" as="geometry" />
        </mxCell>
        <mxCell id="X5-4_fndRjFYN60M6XeI-7" value="DEPARTAMENTO" style="rounded=1;whiteSpace=wrap;html=1;labelBackgroundColor=none;fillColor=#A8DADC;strokeColor=#457B9D;fontColor=#1D3557;" vertex="1" parent="1">
          <mxGeometry x="210" y="140" width="110" height="60" as="geometry" />
        </mxCell>
        <mxCell id="X5-4_fndRjFYN60M6XeI-15" value="1" style="rounded=1;whiteSpace=wrap;html=1;labelBackgroundColor=none;fillColor=#A8DADC;strokeColor=#457B9D;fontColor=#1D3557;" vertex="1" parent="1">
          <mxGeometry x="10" y="10" width="20" height="20" as="geometry" />
        </mxCell>
        <mxCell id="X5-4_fndRjFYN60M6XeI-16" value="2" style="rounded=1;whiteSpace=wrap;html=1;labelBackgroundColor=none;fillColor=#A8DADC;strokeColor=#457B9D;fontColor=#1D3557;" vertex="1" parent="1">
          <mxGeometry x="360" y="20" width="20" height="20" as="geometry" />
        </mxCell>
        <mxCell id="X5-4_fndRjFYN60M6XeI-17" value="N" style="text;html=1;align=center;verticalAlign=middle;resizable=0;points=[];autosize=1;strokeColor=none;fillColor=none;rounded=1;labelBackgroundColor=none;fontColor=#1D3557;" vertex="1" parent="1">
          <mxGeometry x="155" y="45" width="30" height="30" as="geometry" />
        </mxCell>
        <mxCell id="X5-4_fndRjFYN60M6XeI-18" value="1" style="text;html=1;align=center;verticalAlign=middle;resizable=0;points=[];autosize=1;strokeColor=none;fillColor=none;rounded=1;labelBackgroundColor=none;fontColor=#1D3557;" vertex="1" parent="1">
          <mxGeometry x="255" y="105" width="30" height="30" as="geometry" />
        </mxCell>
        <mxCell id="X5-4_fndRjFYN60M6XeI-24" style="edgeStyle=orthogonalEdgeStyle;rounded=1;orthogonalLoop=1;jettySize=auto;html=1;exitX=0.25;exitY=0;exitDx=0;exitDy=0;entryX=0.5;entryY=1;entryDx=0;entryDy=0;labelBackgroundColor=none;strokeColor=#457B9D;fontColor=default;" edge="1" parent="1" source="X5-4_fndRjFYN60M6XeI-19" target="X5-4_fndRjFYN60M6XeI-22">
          <mxGeometry relative="1" as="geometry" />
        </mxCell>
        <mxCell id="X5-4_fndRjFYN60M6XeI-48" style="edgeStyle=orthogonalEdgeStyle;rounded=1;orthogonalLoop=1;jettySize=auto;html=1;entryX=0.5;entryY=0;entryDx=0;entryDy=0;labelBackgroundColor=none;strokeColor=#457B9D;fontColor=default;" edge="1" parent="1" source="X5-4_fndRjFYN60M6XeI-19" target="X5-4_fndRjFYN60M6XeI-40">
          <mxGeometry relative="1" as="geometry" />
        </mxCell>
        <mxCell id="X5-4_fndRjFYN60M6XeI-52" style="edgeStyle=orthogonalEdgeStyle;rounded=1;orthogonalLoop=1;jettySize=auto;html=1;entryX=0.514;entryY=1.49;entryDx=0;entryDy=0;entryPerimeter=0;labelBackgroundColor=none;strokeColor=#457B9D;fontColor=default;" edge="1" parent="1" source="X5-4_fndRjFYN60M6XeI-19" target="X5-4_fndRjFYN60M6XeI-23">
          <mxGeometry relative="1" as="geometry" />
        </mxCell>
        <mxCell id="X5-4_fndRjFYN60M6XeI-54" style="edgeStyle=orthogonalEdgeStyle;rounded=1;orthogonalLoop=1;jettySize=auto;html=1;exitX=1;exitY=0.5;exitDx=0;exitDy=0;entryX=0;entryY=0.5;entryDx=0;entryDy=0;labelBackgroundColor=none;strokeColor=#457B9D;fontColor=default;" edge="1" parent="1" source="X5-4_fndRjFYN60M6XeI-19" target="X5-4_fndRjFYN60M6XeI-20">
          <mxGeometry relative="1" as="geometry" />
        </mxCell>
        <mxCell id="X5-4_fndRjFYN60M6XeI-19" value="ATLETA" style="rounded=1;whiteSpace=wrap;html=1;labelBackgroundColor=none;fillColor=#A8DADC;strokeColor=#457B9D;fontColor=#1D3557;" vertex="1" parent="1">
          <mxGeometry x="410" y="60" width="120" height="60" as="geometry" />
        </mxCell>
        <mxCell id="X5-4_fndRjFYN60M6XeI-30" style="edgeStyle=orthogonalEdgeStyle;rounded=1;orthogonalLoop=1;jettySize=auto;html=1;exitX=0.25;exitY=0;exitDx=0;exitDy=0;entryX=0.5;entryY=1;entryDx=0;entryDy=0;labelBackgroundColor=none;strokeColor=#457B9D;fontColor=default;" edge="1" parent="1" source="X5-4_fndRjFYN60M6XeI-20" target="X5-4_fndRjFYN60M6XeI-28">
          <mxGeometry relative="1" as="geometry" />
        </mxCell>
        <mxCell id="X5-4_fndRjFYN60M6XeI-31" style="edgeStyle=orthogonalEdgeStyle;rounded=1;orthogonalLoop=1;jettySize=auto;html=1;exitX=0.75;exitY=0;exitDx=0;exitDy=0;entryX=0.5;entryY=1;entryDx=0;entryDy=0;labelBackgroundColor=none;strokeColor=#457B9D;fontColor=default;" edge="1" parent="1" source="X5-4_fndRjFYN60M6XeI-20" target="X5-4_fndRjFYN60M6XeI-29">
          <mxGeometry relative="1" as="geometry" />
        </mxCell>
        <mxCell id="X5-4_fndRjFYN60M6XeI-49" style="edgeStyle=orthogonalEdgeStyle;rounded=1;orthogonalLoop=1;jettySize=auto;html=1;exitX=0.5;exitY=1;exitDx=0;exitDy=0;entryX=0.5;entryY=0;entryDx=0;entryDy=0;labelBackgroundColor=none;strokeColor=#457B9D;fontColor=default;" edge="1" parent="1" source="X5-4_fndRjFYN60M6XeI-20" target="X5-4_fndRjFYN60M6XeI-44">
          <mxGeometry relative="1" as="geometry" />
        </mxCell>
        <mxCell id="X5-4_fndRjFYN60M6XeI-20" value="COMPETICAO" style="rounded=1;whiteSpace=wrap;html=1;labelBackgroundColor=none;fillColor=#A8DADC;strokeColor=#457B9D;fontColor=#1D3557;" vertex="1" parent="1">
          <mxGeometry x="660" y="60" width="120" height="60" as="geometry" />
        </mxCell>
        <mxCell id="X5-4_fndRjFYN60M6XeI-22" value="atleta_id" style="text;html=1;strokeColor=none;fillColor=none;align=center;verticalAlign=middle;whiteSpace=wrap;rounded=1;labelBackgroundColor=none;fontColor=#1D3557;" vertex="1" parent="1">
          <mxGeometry x="410" y="10" width="60" height="10" as="geometry" />
        </mxCell>
        <mxCell id="X5-4_fndRjFYN60M6XeI-23" value="nome" style="text;html=1;strokeColor=none;fillColor=none;align=center;verticalAlign=middle;whiteSpace=wrap;rounded=1;labelBackgroundColor=none;fontColor=#1D3557;" vertex="1" parent="1">
          <mxGeometry x="460" y="10" width="60" height="10" as="geometry" />
        </mxCell>
        <mxCell id="X5-4_fndRjFYN60M6XeI-28" value="competicao_id" style="text;html=1;strokeColor=none;fillColor=none;align=center;verticalAlign=middle;whiteSpace=wrap;rounded=1;labelBackgroundColor=none;fontColor=#1D3557;" vertex="1" parent="1">
          <mxGeometry x="660" y="15" width="60" height="10" as="geometry" />
        </mxCell>
        <mxCell id="X5-4_fndRjFYN60M6XeI-29" value="name" style="text;html=1;strokeColor=none;fillColor=none;align=center;verticalAlign=middle;whiteSpace=wrap;rounded=1;labelBackgroundColor=none;fontColor=#1D3557;" vertex="1" parent="1">
          <mxGeometry x="720" y="15" width="60" height="10" as="geometry" />
        </mxCell>
        <mxCell id="X5-4_fndRjFYN60M6XeI-40" value="PARTICIPACAO" style="swimlane;fontStyle=0;childLayout=stackLayout;horizontal=1;startSize=30;horizontalStack=0;resizeParent=1;resizeParentMax=0;resizeLast=0;collapsible=1;marginBottom=0;whiteSpace=wrap;html=1;rounded=1;labelBackgroundColor=none;fillColor=#A8DADC;strokeColor=#457B9D;fontColor=#1D3557;" vertex="1" parent="1">
          <mxGeometry x="400" y="210" width="140" height="120" as="geometry">
            <mxRectangle x="400" y="200" width="130" height="30" as="alternateBounds" />
          </mxGeometry>
        </mxCell>
        <mxCell id="X5-4_fndRjFYN60M6XeI-41" value="participacao_id" style="text;strokeColor=none;fillColor=none;align=left;verticalAlign=middle;spacingLeft=4;spacingRight=4;overflow=hidden;points=[[0,0.5],[1,0.5]];portConstraint=eastwest;rotatable=0;whiteSpace=wrap;html=1;rounded=1;labelBackgroundColor=none;fontColor=#1D3557;" vertex="1" parent="X5-4_fndRjFYN60M6XeI-40">
          <mxGeometry y="30" width="140" height="30" as="geometry" />
        </mxCell>
        <mxCell id="X5-4_fndRjFYN60M6XeI-42" value="atleta_id" style="text;strokeColor=none;fillColor=none;align=left;verticalAlign=middle;spacingLeft=4;spacingRight=4;overflow=hidden;points=[[0,0.5],[1,0.5]];portConstraint=eastwest;rotatable=0;whiteSpace=wrap;html=1;rounded=1;labelBackgroundColor=none;fontColor=#1D3557;" vertex="1" parent="X5-4_fndRjFYN60M6XeI-40">
          <mxGeometry y="60" width="140" height="30" as="geometry" />
        </mxCell>
        <mxCell id="X5-4_fndRjFYN60M6XeI-43" value="competicao_id" style="text;strokeColor=none;fillColor=none;align=left;verticalAlign=middle;spacingLeft=4;spacingRight=4;overflow=hidden;points=[[0,0.5],[1,0.5]];portConstraint=eastwest;rotatable=0;whiteSpace=wrap;html=1;rounded=1;labelBackgroundColor=none;fontColor=#1D3557;" vertex="1" parent="X5-4_fndRjFYN60M6XeI-40">
          <mxGeometry y="90" width="140" height="30" as="geometry" />
        </mxCell>
        <mxCell id="X5-4_fndRjFYN60M6XeI-44" value="COMPETICAO_ATLETA" style="swimlane;fontStyle=0;childLayout=stackLayout;horizontal=1;startSize=30;horizontalStack=0;resizeParent=1;resizeParentMax=0;resizeLast=0;collapsible=1;marginBottom=0;whiteSpace=wrap;html=1;rounded=1;labelBackgroundColor=none;fillColor=#A8DADC;strokeColor=#457B9D;fontColor=#1D3557;" vertex="1" parent="1">
          <mxGeometry x="650" y="210" width="140" height="120" as="geometry" />
        </mxCell>
        <mxCell id="X5-4_fndRjFYN60M6XeI-45" value="competicao_atleta_id" style="text;strokeColor=none;fillColor=none;align=left;verticalAlign=middle;spacingLeft=4;spacingRight=4;overflow=hidden;points=[[0,0.5],[1,0.5]];portConstraint=eastwest;rotatable=0;whiteSpace=wrap;html=1;rounded=1;labelBackgroundColor=none;fontColor=#1D3557;" vertex="1" parent="X5-4_fndRjFYN60M6XeI-44">
          <mxGeometry y="30" width="140" height="30" as="geometry" />
        </mxCell>
        <mxCell id="X5-4_fndRjFYN60M6XeI-46" value="competicao_id" style="text;strokeColor=none;fillColor=none;align=left;verticalAlign=middle;spacingLeft=4;spacingRight=4;overflow=hidden;points=[[0,0.5],[1,0.5]];portConstraint=eastwest;rotatable=0;whiteSpace=wrap;html=1;rounded=1;labelBackgroundColor=none;fontColor=#1D3557;" vertex="1" parent="X5-4_fndRjFYN60M6XeI-44">
          <mxGeometry y="60" width="140" height="30" as="geometry" />
        </mxCell>
        <mxCell id="X5-4_fndRjFYN60M6XeI-47" value="atleta_id" style="text;strokeColor=none;fillColor=none;align=left;verticalAlign=middle;spacingLeft=4;spacingRight=4;overflow=hidden;points=[[0,0.5],[1,0.5]];portConstraint=eastwest;rotatable=0;whiteSpace=wrap;html=1;rounded=1;labelBackgroundColor=none;fontColor=#1D3557;" vertex="1" parent="X5-4_fndRjFYN60M6XeI-44">
          <mxGeometry y="90" width="140" height="30" as="geometry" />
        </mxCell>
        <mxCell id="X5-4_fndRjFYN60M6XeI-53" value="1:1" style="text;html=1;align=center;verticalAlign=middle;resizable=0;points=[];autosize=1;strokeColor=none;fillColor=none;rounded=1;labelBackgroundColor=none;fontColor=#1D3557;" vertex="1" parent="1">
          <mxGeometry x="720" y="145" width="40" height="30" as="geometry" />
        </mxCell>
        <mxCell id="X5-4_fndRjFYN60M6XeI-56" value="1:N" style="text;html=1;align=center;verticalAlign=middle;resizable=0;points=[];autosize=1;strokeColor=none;fillColor=none;rounded=1;labelBackgroundColor=none;fontColor=#1D3557;" vertex="1" parent="1">
          <mxGeometry x="470" y="145" width="40" height="30" as="geometry" />
        </mxCell>
        <mxCell id="X5-4_fndRjFYN60M6XeI-57" value="1:N" style="text;html=1;align=center;verticalAlign=middle;resizable=0;points=[];autosize=1;strokeColor=none;fillColor=none;rounded=1;labelBackgroundColor=none;fontColor=#1D3557;" vertex="1" parent="1">
          <mxGeometry x="570" y="65" width="40" height="30" as="geometry" />
        </mxCell>
        <mxCell id="X5-4_fndRjFYN60M6XeI-58" value="3" style="rounded=1;whiteSpace=wrap;html=1;labelBackgroundColor=none;fillColor=#A8DADC;strokeColor=#457B9D;fontColor=#1D3557;" vertex="1" parent="1">
          <mxGeometry x="10" y="380" width="20" height="20" as="geometry" />
        </mxCell>
        <mxCell id="X5-4_fndRjFYN60M6XeI-59" value="CIDADE" style="swimlane;fontStyle=0;childLayout=stackLayout;horizontal=1;startSize=30;horizontalStack=0;resizeParent=1;resizeParentMax=0;resizeLast=0;collapsible=1;marginBottom=0;whiteSpace=wrap;html=1;rounded=1;labelBackgroundColor=none;fillColor=#A8DADC;strokeColor=#457B9D;fontColor=#1D3557;" vertex="1" parent="1">
          <mxGeometry x="25" y="420" width="140" height="90" as="geometry" />
        </mxCell>
        <mxCell id="X5-4_fndRjFYN60M6XeI-60" value="cidade_id" style="text;strokeColor=none;fillColor=none;align=left;verticalAlign=middle;spacingLeft=4;spacingRight=4;overflow=hidden;points=[[0,0.5],[1,0.5]];portConstraint=eastwest;rotatable=0;whiteSpace=wrap;html=1;rounded=1;labelBackgroundColor=none;fontColor=#1D3557;" vertex="1" parent="X5-4_fndRjFYN60M6XeI-59">
          <mxGeometry y="30" width="140" height="30" as="geometry" />
        </mxCell>
        <mxCell id="X5-4_fndRjFYN60M6XeI-61" value="nome" style="text;strokeColor=none;fillColor=none;align=left;verticalAlign=middle;spacingLeft=4;spacingRight=4;overflow=hidden;points=[[0,0.5],[1,0.5]];portConstraint=eastwest;rotatable=0;whiteSpace=wrap;html=1;rounded=1;labelBackgroundColor=none;fontColor=#1D3557;" vertex="1" parent="X5-4_fndRjFYN60M6XeI-59">
          <mxGeometry y="60" width="140" height="30" as="geometry" />
        </mxCell>
        <mxCell id="X5-4_fndRjFYN60M6XeI-77" style="edgeStyle=orthogonalEdgeStyle;rounded=1;orthogonalLoop=1;jettySize=auto;html=1;exitX=0.5;exitY=1;exitDx=0;exitDy=0;entryX=0.545;entryY=-0.02;entryDx=0;entryDy=0;entryPerimeter=0;labelBackgroundColor=none;strokeColor=#457B9D;fontColor=default;" edge="1" parent="1" source="X5-4_fndRjFYN60M6XeI-63" target="X5-4_fndRjFYN60M6XeI-67">
          <mxGeometry relative="1" as="geometry" />
        </mxCell>
        <mxCell id="X5-4_fndRjFYN60M6XeI-63" value="RUA" style="swimlane;fontStyle=0;childLayout=stackLayout;horizontal=1;startSize=30;horizontalStack=0;resizeParent=1;resizeParentMax=0;resizeLast=0;collapsible=1;marginBottom=0;whiteSpace=wrap;html=1;rounded=1;labelBackgroundColor=none;fillColor=#A8DADC;strokeColor=#457B9D;fontColor=#1D3557;" vertex="1" parent="1">
          <mxGeometry x="240" y="420" width="140" height="120" as="geometry" />
        </mxCell>
        <mxCell id="X5-4_fndRjFYN60M6XeI-64" value="rua_id" style="text;strokeColor=none;fillColor=none;align=left;verticalAlign=middle;spacingLeft=4;spacingRight=4;overflow=hidden;points=[[0,0.5],[1,0.5]];portConstraint=eastwest;rotatable=0;whiteSpace=wrap;html=1;rounded=1;labelBackgroundColor=none;fontColor=#1D3557;" vertex="1" parent="X5-4_fndRjFYN60M6XeI-63">
          <mxGeometry y="30" width="140" height="30" as="geometry" />
        </mxCell>
        <mxCell id="X5-4_fndRjFYN60M6XeI-65" value="nome" style="text;strokeColor=none;fillColor=none;align=left;verticalAlign=middle;spacingLeft=4;spacingRight=4;overflow=hidden;points=[[0,0.5],[1,0.5]];portConstraint=eastwest;rotatable=0;whiteSpace=wrap;html=1;rounded=1;labelBackgroundColor=none;fontColor=#1D3557;" vertex="1" parent="X5-4_fndRjFYN60M6XeI-63">
          <mxGeometry y="60" width="140" height="30" as="geometry" />
        </mxCell>
        <mxCell id="X5-4_fndRjFYN60M6XeI-66" value="cidade_id" style="text;strokeColor=none;fillColor=none;align=left;verticalAlign=middle;spacingLeft=4;spacingRight=4;overflow=hidden;points=[[0,0.5],[1,0.5]];portConstraint=eastwest;rotatable=0;whiteSpace=wrap;html=1;rounded=1;labelBackgroundColor=none;fontColor=#1D3557;" vertex="1" parent="X5-4_fndRjFYN60M6XeI-63">
          <mxGeometry y="90" width="140" height="30" as="geometry" />
        </mxCell>
        <mxCell id="X5-4_fndRjFYN60M6XeI-79" style="edgeStyle=orthogonalEdgeStyle;rounded=1;orthogonalLoop=1;jettySize=auto;html=1;exitX=0.5;exitY=1;exitDx=0;exitDy=0;entryX=0.5;entryY=0;entryDx=0;entryDy=0;labelBackgroundColor=none;strokeColor=#457B9D;fontColor=default;" edge="1" parent="1" source="X5-4_fndRjFYN60M6XeI-67" target="X5-4_fndRjFYN60M6XeI-71">
          <mxGeometry relative="1" as="geometry" />
        </mxCell>
        <mxCell id="X5-4_fndRjFYN60M6XeI-67" value="CONDOMINIO" style="swimlane;fontStyle=0;childLayout=stackLayout;horizontal=1;startSize=30;horizontalStack=0;resizeParent=1;resizeParentMax=0;resizeLast=0;collapsible=1;marginBottom=0;whiteSpace=wrap;html=1;rounded=1;labelBackgroundColor=none;fillColor=#A8DADC;strokeColor=#457B9D;fontColor=#1D3557;" vertex="1" parent="1">
          <mxGeometry x="260" y="650" width="140" height="110" as="geometry" />
        </mxCell>
        <mxCell id="X5-4_fndRjFYN60M6XeI-68" value="condominio_id" style="text;strokeColor=none;fillColor=none;align=left;verticalAlign=middle;spacingLeft=4;spacingRight=4;overflow=hidden;points=[[0,0.5],[1,0.5]];portConstraint=eastwest;rotatable=0;whiteSpace=wrap;html=1;rounded=1;labelBackgroundColor=none;fontColor=#1D3557;" vertex="1" parent="X5-4_fndRjFYN60M6XeI-67">
          <mxGeometry y="30" width="140" height="30" as="geometry" />
        </mxCell>
        <mxCell id="X5-4_fndRjFYN60M6XeI-69" value="nome" style="text;strokeColor=none;fillColor=none;align=left;verticalAlign=middle;spacingLeft=4;spacingRight=4;overflow=hidden;points=[[0,0.5],[1,0.5]];portConstraint=eastwest;rotatable=0;whiteSpace=wrap;html=1;rounded=1;labelBackgroundColor=none;fontColor=#1D3557;" vertex="1" parent="X5-4_fndRjFYN60M6XeI-67">
          <mxGeometry y="60" width="140" height="30" as="geometry" />
        </mxCell>
        <mxCell id="X5-4_fndRjFYN60M6XeI-70" value="rua_id" style="text;strokeColor=none;fillColor=none;align=left;verticalAlign=middle;spacingLeft=4;spacingRight=4;overflow=hidden;points=[[0,0.5],[1,0.5]];portConstraint=eastwest;rotatable=0;whiteSpace=wrap;html=1;rounded=1;labelBackgroundColor=none;fontColor=#1D3557;" vertex="1" parent="X5-4_fndRjFYN60M6XeI-67">
          <mxGeometry y="90" width="140" height="20" as="geometry" />
        </mxCell>
        <mxCell id="X5-4_fndRjFYN60M6XeI-71" value="APARTAMENTO" style="swimlane;fontStyle=0;childLayout=stackLayout;horizontal=1;startSize=30;horizontalStack=0;resizeParent=1;resizeParentMax=0;resizeLast=0;collapsible=1;marginBottom=0;whiteSpace=wrap;html=1;rounded=1;labelBackgroundColor=none;fillColor=#A8DADC;strokeColor=#457B9D;fontColor=#1D3557;" vertex="1" parent="1">
          <mxGeometry x="285" y="860" width="140" height="120" as="geometry" />
        </mxCell>
        <mxCell id="X5-4_fndRjFYN60M6XeI-72" value="apartamento_id" style="text;strokeColor=none;fillColor=none;align=left;verticalAlign=middle;spacingLeft=4;spacingRight=4;overflow=hidden;points=[[0,0.5],[1,0.5]];portConstraint=eastwest;rotatable=0;whiteSpace=wrap;html=1;rounded=1;labelBackgroundColor=none;fontColor=#1D3557;" vertex="1" parent="X5-4_fndRjFYN60M6XeI-71">
          <mxGeometry y="30" width="140" height="30" as="geometry" />
        </mxCell>
        <mxCell id="X5-4_fndRjFYN60M6XeI-73" value="numero" style="text;strokeColor=none;fillColor=none;align=left;verticalAlign=middle;spacingLeft=4;spacingRight=4;overflow=hidden;points=[[0,0.5],[1,0.5]];portConstraint=eastwest;rotatable=0;whiteSpace=wrap;html=1;rounded=1;labelBackgroundColor=none;fontColor=#1D3557;" vertex="1" parent="X5-4_fndRjFYN60M6XeI-71">
          <mxGeometry y="60" width="140" height="30" as="geometry" />
        </mxCell>
        <mxCell id="X5-4_fndRjFYN60M6XeI-74" value="condominio_id" style="text;strokeColor=none;fillColor=none;align=left;verticalAlign=middle;spacingLeft=4;spacingRight=4;overflow=hidden;points=[[0,0.5],[1,0.5]];portConstraint=eastwest;rotatable=0;whiteSpace=wrap;html=1;rounded=1;labelBackgroundColor=none;fontColor=#1D3557;" vertex="1" parent="X5-4_fndRjFYN60M6XeI-71">
          <mxGeometry y="90" width="140" height="30" as="geometry" />
        </mxCell>
        <mxCell id="X5-4_fndRjFYN60M6XeI-75" style="edgeStyle=orthogonalEdgeStyle;rounded=1;orthogonalLoop=1;jettySize=auto;html=1;exitX=1;exitY=0.5;exitDx=0;exitDy=0;entryX=-0.001;entryY=0.117;entryDx=0;entryDy=0;entryPerimeter=0;labelBackgroundColor=none;strokeColor=#457B9D;fontColor=default;" edge="1" parent="1" source="X5-4_fndRjFYN60M6XeI-60" target="X5-4_fndRjFYN60M6XeI-65">
          <mxGeometry relative="1" as="geometry" />
        </mxCell>
        <mxCell id="X5-4_fndRjFYN60M6XeI-81" value="1:1" style="text;html=1;align=center;verticalAlign=middle;resizable=0;points=[];autosize=1;strokeColor=none;fillColor=none;rounded=1;labelBackgroundColor=none;fontColor=#1D3557;" vertex="1" parent="1">
          <mxGeometry x="350" y="585" width="40" height="30" as="geometry" />
        </mxCell>
        <mxCell id="X5-4_fndRjFYN60M6XeI-83" value="1:N" style="text;html=1;align=center;verticalAlign=middle;resizable=0;points=[];autosize=1;strokeColor=none;fillColor=none;rounded=1;labelBackgroundColor=none;fontColor=#1D3557;" vertex="1" parent="1">
          <mxGeometry x="370" y="795" width="40" height="30" as="geometry" />
        </mxCell>
        <mxCell id="X5-4_fndRjFYN60M6XeI-85" value="1:N" style="text;html=1;align=center;verticalAlign=middle;resizable=0;points=[];autosize=1;strokeColor=none;fillColor=none;rounded=1;labelBackgroundColor=none;fontColor=#1D3557;" vertex="1" parent="1">
          <mxGeometry x="190" y="425" width="40" height="30" as="geometry" />
        </mxCell>
        <mxCell id="X5-4_fndRjFYN60M6XeI-86" value="4" style="rounded=1;whiteSpace=wrap;html=1;labelBackgroundColor=none;fillColor=#A8DADC;strokeColor=#457B9D;fontColor=#1D3557;" vertex="1" parent="1">
          <mxGeometry x="425" y="380" width="20" height="20" as="geometry" />
        </mxCell>
        <mxCell id="X5-4_fndRjFYN60M6XeI-107" style="edgeStyle=orthogonalEdgeStyle;rounded=1;orthogonalLoop=1;jettySize=auto;html=1;labelBackgroundColor=none;strokeColor=#457B9D;fontColor=default;" edge="1" parent="1" source="X5-4_fndRjFYN60M6XeI-87" target="X5-4_fndRjFYN60M6XeI-95">
          <mxGeometry relative="1" as="geometry" />
        </mxCell>
        <mxCell id="X5-4_fndRjFYN60M6XeI-87" value="TipoQuarto" style="swimlane;fontStyle=0;childLayout=stackLayout;horizontal=1;startSize=30;horizontalStack=0;resizeParent=1;resizeParentMax=0;resizeLast=0;collapsible=1;marginBottom=0;whiteSpace=wrap;html=1;rounded=1;labelBackgroundColor=none;fillColor=#A8DADC;strokeColor=#457B9D;fontColor=#1D3557;" vertex="1" parent="1">
          <mxGeometry x="460" y="380" width="140" height="90" as="geometry" />
        </mxCell>
        <mxCell id="X5-4_fndRjFYN60M6XeI-88" value="quarto_tipo_id" style="text;strokeColor=none;fillColor=none;align=left;verticalAlign=middle;spacingLeft=4;spacingRight=4;overflow=hidden;points=[[0,0.5],[1,0.5]];portConstraint=eastwest;rotatable=0;whiteSpace=wrap;html=1;rounded=1;labelBackgroundColor=none;fontColor=#1D3557;" vertex="1" parent="X5-4_fndRjFYN60M6XeI-87">
          <mxGeometry y="30" width="140" height="30" as="geometry" />
        </mxCell>
        <mxCell id="X5-4_fndRjFYN60M6XeI-89" value="nome" style="text;strokeColor=none;fillColor=none;align=left;verticalAlign=middle;spacingLeft=4;spacingRight=4;overflow=hidden;points=[[0,0.5],[1,0.5]];portConstraint=eastwest;rotatable=0;whiteSpace=wrap;html=1;rounded=1;labelBackgroundColor=none;fontColor=#1D3557;" vertex="1" parent="X5-4_fndRjFYN60M6XeI-87">
          <mxGeometry y="60" width="140" height="30" as="geometry" />
        </mxCell>
        <mxCell id="X5-4_fndRjFYN60M6XeI-108" style="edgeStyle=orthogonalEdgeStyle;rounded=1;orthogonalLoop=1;jettySize=auto;html=1;entryX=0.5;entryY=0;entryDx=0;entryDy=0;labelBackgroundColor=none;strokeColor=#457B9D;fontColor=default;" edge="1" parent="1" source="X5-4_fndRjFYN60M6XeI-91" target="X5-4_fndRjFYN60M6XeI-99">
          <mxGeometry relative="1" as="geometry" />
        </mxCell>
        <mxCell id="X5-4_fndRjFYN60M6XeI-91" value="HOSPEDE" style="swimlane;fontStyle=0;childLayout=stackLayout;horizontal=1;startSize=30;horizontalStack=0;resizeParent=1;resizeParentMax=0;resizeLast=0;collapsible=1;marginBottom=0;whiteSpace=wrap;html=1;rounded=1;labelBackgroundColor=none;fillColor=#A8DADC;strokeColor=#457B9D;fontColor=#1D3557;" vertex="1" parent="1">
          <mxGeometry x="700" y="380" width="140" height="90" as="geometry" />
        </mxCell>
        <mxCell id="X5-4_fndRjFYN60M6XeI-92" value="hospede_id" style="text;strokeColor=none;fillColor=none;align=left;verticalAlign=middle;spacingLeft=4;spacingRight=4;overflow=hidden;points=[[0,0.5],[1,0.5]];portConstraint=eastwest;rotatable=0;whiteSpace=wrap;html=1;rounded=1;labelBackgroundColor=none;fontColor=#1D3557;" vertex="1" parent="X5-4_fndRjFYN60M6XeI-91">
          <mxGeometry y="30" width="140" height="30" as="geometry" />
        </mxCell>
        <mxCell id="X5-4_fndRjFYN60M6XeI-93" value="nome" style="text;strokeColor=none;fillColor=none;align=left;verticalAlign=middle;spacingLeft=4;spacingRight=4;overflow=hidden;points=[[0,0.5],[1,0.5]];portConstraint=eastwest;rotatable=0;whiteSpace=wrap;html=1;rounded=1;labelBackgroundColor=none;fontColor=#1D3557;" vertex="1" parent="X5-4_fndRjFYN60M6XeI-91">
          <mxGeometry y="60" width="140" height="30" as="geometry" />
        </mxCell>
        <mxCell id="X5-4_fndRjFYN60M6XeI-95" value="QUARTO" style="swimlane;fontStyle=0;childLayout=stackLayout;horizontal=1;startSize=30;horizontalStack=0;resizeParent=1;resizeParentMax=0;resizeLast=0;collapsible=1;marginBottom=0;whiteSpace=wrap;html=1;rounded=1;labelBackgroundColor=none;fillColor=#A8DADC;strokeColor=#457B9D;fontColor=#1D3557;" vertex="1" parent="1">
          <mxGeometry x="460" y="610" width="140" height="150" as="geometry">
            <mxRectangle x="460" y="610" width="90" height="30" as="alternateBounds" />
          </mxGeometry>
        </mxCell>
        <mxCell id="X5-4_fndRjFYN60M6XeI-96" value="quarto_id" style="text;strokeColor=none;fillColor=none;align=left;verticalAlign=middle;spacingLeft=4;spacingRight=4;overflow=hidden;points=[[0,0.5],[1,0.5]];portConstraint=eastwest;rotatable=0;whiteSpace=wrap;html=1;rounded=1;labelBackgroundColor=none;fontColor=#1D3557;" vertex="1" parent="X5-4_fndRjFYN60M6XeI-95">
          <mxGeometry y="30" width="140" height="30" as="geometry" />
        </mxCell>
        <mxCell id="X5-4_fndRjFYN60M6XeI-97" value="quarto_numero" style="text;strokeColor=none;fillColor=none;align=left;verticalAlign=middle;spacingLeft=4;spacingRight=4;overflow=hidden;points=[[0,0.5],[1,0.5]];portConstraint=eastwest;rotatable=0;whiteSpace=wrap;html=1;rounded=1;labelBackgroundColor=none;fontColor=#1D3557;" vertex="1" parent="X5-4_fndRjFYN60M6XeI-95">
          <mxGeometry y="60" width="140" height="30" as="geometry" />
        </mxCell>
        <mxCell id="X5-4_fndRjFYN60M6XeI-98" value="quarto_tipo_id" style="text;strokeColor=none;fillColor=none;align=left;verticalAlign=middle;spacingLeft=4;spacingRight=4;overflow=hidden;points=[[0,0.5],[1,0.5]];portConstraint=eastwest;rotatable=0;whiteSpace=wrap;html=1;rounded=1;labelBackgroundColor=none;fontColor=#1D3557;" vertex="1" parent="X5-4_fndRjFYN60M6XeI-95">
          <mxGeometry y="90" width="140" height="20" as="geometry" />
        </mxCell>
        <mxCell id="X5-4_fndRjFYN60M6XeI-116" value="esta_diposnivel" style="text;strokeColor=none;fillColor=none;align=left;verticalAlign=middle;spacingLeft=4;spacingRight=4;overflow=hidden;points=[[0,0.5],[1,0.5]];portConstraint=eastwest;rotatable=0;whiteSpace=wrap;html=1;rounded=1;labelBackgroundColor=none;fontColor=#1D3557;" vertex="1" parent="X5-4_fndRjFYN60M6XeI-95">
          <mxGeometry y="110" width="140" height="20" as="geometry" />
        </mxCell>
        <mxCell id="X5-4_fndRjFYN60M6XeI-117" style="text;strokeColor=none;fillColor=none;align=left;verticalAlign=middle;spacingLeft=4;spacingRight=4;overflow=hidden;points=[[0,0.5],[1,0.5]];portConstraint=eastwest;rotatable=0;whiteSpace=wrap;html=1;rounded=1;labelBackgroundColor=none;fontColor=#1D3557;" vertex="1" parent="X5-4_fndRjFYN60M6XeI-95">
          <mxGeometry y="130" width="140" height="20" as="geometry" />
        </mxCell>
        <mxCell id="X5-4_fndRjFYN60M6XeI-99" value="RESERVA" style="swimlane;fontStyle=0;childLayout=stackLayout;horizontal=1;startSize=30;horizontalStack=0;resizeParent=1;resizeParentMax=0;resizeLast=0;collapsible=1;marginBottom=0;whiteSpace=wrap;html=1;rounded=1;labelBackgroundColor=none;fillColor=#A8DADC;strokeColor=#457B9D;fontColor=#1D3557;" vertex="1" parent="1">
          <mxGeometry x="700" y="615" width="140" height="180" as="geometry" />
        </mxCell>
        <mxCell id="X5-4_fndRjFYN60M6XeI-100" value="reserva_id" style="text;strokeColor=none;fillColor=none;align=left;verticalAlign=middle;spacingLeft=4;spacingRight=4;overflow=hidden;points=[[0,0.5],[1,0.5]];portConstraint=eastwest;rotatable=0;whiteSpace=wrap;html=1;rounded=1;labelBackgroundColor=none;fontColor=#1D3557;" vertex="1" parent="X5-4_fndRjFYN60M6XeI-99">
          <mxGeometry y="30" width="140" height="30" as="geometry" />
        </mxCell>
        <mxCell id="X5-4_fndRjFYN60M6XeI-101" value="hospede_id" style="text;strokeColor=none;fillColor=none;align=left;verticalAlign=middle;spacingLeft=4;spacingRight=4;overflow=hidden;points=[[0,0.5],[1,0.5]];portConstraint=eastwest;rotatable=0;whiteSpace=wrap;html=1;rounded=1;labelBackgroundColor=none;fontColor=#1D3557;" vertex="1" parent="X5-4_fndRjFYN60M6XeI-99">
          <mxGeometry y="60" width="140" height="30" as="geometry" />
        </mxCell>
        <mxCell id="X5-4_fndRjFYN60M6XeI-102" value="quarto_id" style="text;strokeColor=none;fillColor=none;align=left;verticalAlign=middle;spacingLeft=4;spacingRight=4;overflow=hidden;points=[[0,0.5],[1,0.5]];portConstraint=eastwest;rotatable=0;whiteSpace=wrap;html=1;rounded=1;labelBackgroundColor=none;fontColor=#1D3557;" vertex="1" parent="X5-4_fndRjFYN60M6XeI-99">
          <mxGeometry y="90" width="140" height="30" as="geometry" />
        </mxCell>
        <mxCell id="X5-4_fndRjFYN60M6XeI-119" value="data_inicio" style="text;strokeColor=none;fillColor=none;align=left;verticalAlign=middle;spacingLeft=4;spacingRight=4;overflow=hidden;points=[[0,0.5],[1,0.5]];portConstraint=eastwest;rotatable=0;whiteSpace=wrap;html=1;rounded=1;labelBackgroundColor=none;fontColor=#1D3557;" vertex="1" parent="X5-4_fndRjFYN60M6XeI-99">
          <mxGeometry y="120" width="140" height="30" as="geometry" />
        </mxCell>
        <mxCell id="X5-4_fndRjFYN60M6XeI-121" value="data_saida" style="text;strokeColor=none;fillColor=none;align=left;verticalAlign=middle;spacingLeft=4;spacingRight=4;overflow=hidden;points=[[0,0.5],[1,0.5]];portConstraint=eastwest;rotatable=0;whiteSpace=wrap;html=1;rounded=1;labelBackgroundColor=none;fontColor=#1D3557;" vertex="1" parent="X5-4_fndRjFYN60M6XeI-99">
          <mxGeometry y="150" width="140" height="30" as="geometry" />
        </mxCell>
        <mxCell id="X5-4_fndRjFYN60M6XeI-109" value="N:1" style="text;html=1;align=center;verticalAlign=middle;resizable=0;points=[];autosize=1;strokeColor=none;fillColor=none;rounded=1;labelBackgroundColor=none;fontColor=#1D3557;" vertex="1" parent="1">
          <mxGeometry x="765" y="535" width="40" height="30" as="geometry" />
        </mxCell>
        <mxCell id="X5-4_fndRjFYN60M6XeI-110" value="N:1" style="text;html=1;align=center;verticalAlign=middle;resizable=0;points=[];autosize=1;strokeColor=none;fillColor=none;rounded=1;labelBackgroundColor=none;fontColor=#1D3557;" vertex="1" parent="1">
          <mxGeometry x="525" y="535" width="40" height="30" as="geometry" />
        </mxCell>
      </root>
    </mxGraphModel>
  </diagram>
</mxfile>
